# xmcd CD database file
#
# Track frame offsets:
#	150
#	14373
#	27888
#	40610
#	53130
#	66714
#	78345
#	93046
#	105351
#	119258
#	136061
#	148212
#	163718
#	178271
#	189934
#	204827
#	219090
#	233219
#	247095
#	260812
#	274531
#	289080
#	301120
#	315463
#	327578
#
# Disc length: 4555 seconds
#
# Revision: 0
# Processed by: cddbd v1.4PL0 Copyright (c) Steve Scherf et al.
# Submitted via: CDex 1.50Beta5
#
DISCID=5e11c919
DTITLE=John Lee Hooker - Disk D 1948-1951
DYEAR=2002
DGENRE=Blues
TTITLE0=Notoriety Woman
TTITLE1=Never Satisfied
TTITLE2=Moon Is Rising
TTITLE3=Please Have Mercy
TTITLE4=John L's House Rent Boogie
TTITLE5=Queen Bee
TTITLE6=You've Got Another Man
TTITLE7=If You Need My Lovin' Baby
TTITLE8=Nobody To Talk To Me
TTITLE9=Prison Bound
TTITLE10=Bumble Bee Blues
TTITLE11=Questionnaire Blues
TTITLE12=Real Good Gal
TTITLE13=Little Boy Blues
TTITLE14=My Daddy Was A Jockey
TTITLE15=Mean Old Train
TTITLE16=Catfish
TTITLE17=Louise
TTITLE18=I'm Going Away
TTITLE19=Tease Me Baby
TTITLE20=Streets Is Filled With Women
TTITLE21=Me And My Woman
TTITLE22=Whistle Done Blown
TTITLE23=How Can You Do It
TTITLE24=I'm In The Mood
EXTD=YEAR: 2002
EXTT0=
EXTT1=
EXTT2=
EXTT3=
EXTT4=
EXTT5=
EXTT6=
EXTT7=
EXTT8=
EXTT9=
EXTT10=
EXTT11=
EXTT12=
EXTT13=
EXTT14=
EXTT15=
EXTT16=
EXTT17=
EXTT18=
EXTT19=
EXTT20=
EXTT21=
EXTT22=
EXTT23=
EXTT24=
PLAYORDER=
